<svg xmlns="http://www.w3.org/2000/svg" viewBox="0 0 667.14 333.57"><defs><style>.cls-1{fill:#fff;}.cls-2{fill:#f7b11e;}.cls-3{fill:#fdeb48;}.cls-4{fill:#fed137;}.cls-5{fill:#f26d24;}.cls-6{fill:#d72626;}.cls-7{fill:#99c817;}</style></defs><g id="圖層_2" data-name="圖層 2"><g id="Layer_1" data-name="Layer 1"><path class="cls-1" d="M622.49,166.76A333.57,333.57,0,0,0,0,333.57H119a214.62,214.62,0,0,1,429.24,0H667.14A332,332,0,0,0,622.49,166.76Z"/><path class="cls-2" d="M440.87,147.72,500.38,44.65A332,332,0,0,0,333.57,0V119A213.63,213.63,0,0,1,440.87,147.72Z"/><path class="cls-3" d="M226.27,147.72,166.76,44.65A335.19,335.19,0,0,0,44.65,166.76l103.07,59.51A215.79,215.79,0,0,1,226.27,147.72Z"/><path class="cls-4" d="M333.57,119V0A332,332,0,0,0,166.76,44.65l59.51,103.07A213.66,213.66,0,0,1,333.57,119Z"/><path class="cls-5" d="M519.42,226.27l103.07-59.51A335.19,335.19,0,0,0,500.38,44.65L440.87,147.72A215.71,215.71,0,0,1,519.42,226.27Z"/><path class="cls-6" d="M548.19,333.57H667.14a332,332,0,0,0-44.65-166.81L519.42,226.27A213.56,213.56,0,0,1,548.19,333.57Z"/><path class="cls-7" d="M119,333.57a213.66,213.66,0,0,1,28.77-107.3L44.65,166.76A332,332,0,0,0,0,333.57H119Z"/></g></g></svg>